Format : AVI
Format/Info : Audio Video Interleave
File size : 1.62 GiB
Duration : 1h 28mn
Overall bit rate : 2 611 Kbps
Writing library : VirtualDub build 32842/release

Video
ID : 0
Format : MPEG-4 Visual
Format profile : Advanced Simple@L5
Format settings, BVOP : 1
Format settings, QPel : No
Format settings, GMC : No warppoints
Format settings, Matrix : Default (H.263)
Muxing mode : Packed bitstream
Codec ID : XVID
Codec ID/Hint : XviD
Duration : 1h 28mn
Bit rate : 2 474 Kbps
Width : 624 pixels
Height : 352 pixels
Display aspect ratio : 16:9
Frame rate : 23.976 fps
Color space : YUV
Chroma subsampling : 4:2:0
Bit depth : 8 bits
Scan type : Progressive
Compression mode : Lossy
Bits/(Pixel*Frame) : 0.470
Stream size : 1.53 GiB (95%)
Writing library : XviD 64

Audio
ID : 1
Format : MPEG Audio
Format version : Version 1
Format profile : Layer 3
Codec ID : 55
Codec ID/Hint : MP3
Duration : 1h 28mn
Bit rate mode : Constant
Bit rate : 128 Kbps
Channel(s) : 2 channels
Sampling rate : 44.1 KHz
Compression mode : Lossy
Delay relative to video : 15ms
Stream size : 81.2 MiB (5%)
Alignment : Split accross interleaves
Interleave, duration : 42 ms (1.00 video frame)
Interleave, preload duration : 500 ms

 
http://www.imdb.com/title/tt0810913/


Ratings: 2.8/10 from 3,646 users Metascore: 23/100
Reviews: 47 user | 43 critic | 26 from Metacritic.com

Family guy Jack Sadelstein prepares for the annual event he dreads: the Thanksgiving visit of his twin sister, the needy and passive-aggressive Jill, who then refuses to leave.
Director:
Dennis Dugan
Writers:
Adam Sandler (screenplay), Steve Koren (screenplay), and 1 more credit »
Stars:
Adam Sandler, Katie Holmes and Al Pacino


1st 30 mins
 
http://img843.imageshack.us/img843/6346/vlcsnap2011112915h31m40.png


Then after 30 mins
 
http://img217.imageshack.us/img217/6408/vlcsnap2011112915h32m23.png
 
http://img710.imageshack.us/img710/526/vlcsnap2011112915h43m37.png
 
http://img689.imageshack.us/img689/2538/vlcsnap2011112915h35m05.png


Source Used


FYA ........Thanksy


Same reason for READNFO as the others 1st 30mins is whacked you gonna have bad eyes watching it tbh ..Then after that vid is good good


Check out the sample

I did go to cut the 1st 30 mins and filter it but tbh i started and nothing can be done with it so just went back to doing what i could




Enjoy
